<?xml version="1.0" encoding="utf-8"?>
<!-- Generator: Adobe Illustrator 15.1.0, SVG Export Plug-In . SVG Version: 6.00 Build 0)  -->
<!DOCTYPE svg PUBLIC "-//W3C//DTD SVG 1.1//EN" "http://www.w3.org/Graphics/SVG/1.1/DTD/svg11.dtd">
<svg version="1.1" id="レイヤー_1" xmlns="http://www.w3.org/2000/svg" xmlns:xlink="http://www.w3.org/1999/xlink" x="0px"
	 y="0px" width="1500px" height="500px" viewBox="0 0 1500 500" enable-background="new 0 0 1500 500" xml:space="preserve">
<g>
	<rect x="0" fill="#393E46" width="1500" height="500"/>
</g>
<g>
	<path fill="#FFFFFF" d="M235.967,350.986V157.979h47.461c25.313,0,44.011,4.834,56.096,14.502
		c12.084,9.669,18.128,24.61,18.128,44.824c0,18.721-6.087,33.4-18.259,44.033c-12.175,10.635-29.027,15.952-50.56,15.952h-11.338
		v73.696H235.967z M277.495,245.122h5.933c11.249,0,19.423-2.328,24.521-6.987c5.097-4.658,7.646-12.129,7.646-22.412
		c0-9.492-2.55-16.414-7.646-20.764c-5.099-4.351-13.272-6.526-24.521-6.526h-5.933V245.122z"/>
	<path fill="#FFFFFF" d="M509.263,286.782c0,19.864-6.79,36.387-20.368,49.57c-13.58,13.184-30.784,19.775-51.614,19.775
		c-21.007,0-38.321-6.592-51.943-19.775c-13.624-13.184-20.435-29.707-20.435-49.57c0-19.775,6.855-36.298,20.566-49.57
		c13.711-13.27,30.981-19.907,51.812-19.907c20.917,0,38.144,6.548,51.68,19.644C502.494,250.045,509.263,266.657,509.263,286.782z
		 M471.03,286.519c0-10.547-3.077-18.962-9.229-25.247c-6.153-6.283-14.415-9.426-24.785-9.426c-10.372,0-18.589,3.121-24.653,9.36
		c-6.064,6.242-9.097,14.679-9.097,25.313c0,10.547,3.032,18.984,9.097,25.313s14.281,9.492,24.653,9.492
		c10.283,0,18.522-3.164,24.72-9.492C467.932,305.503,471.03,297.065,471.03,286.519z"/>
	<path fill="#FFFFFF" d="M568.462,254.878c3.778-12.568,9.206-21.971,16.282-28.213c7.073-6.24,15.841-9.36,26.301-9.36
		c2.373,0,6.283,0.441,11.733,1.318c1.055,0.177,1.846,0.309,2.373,0.396l-5.669,40.342c-2.813-1.141-5.648-1.998-8.504-2.571
		c-2.856-0.571-5.866-0.857-9.03-0.857c-11.427,0-19.644,2.923-24.653,8.767c-5.01,5.846-7.515,15.623-7.515,29.333v56.953h-37.573
		V221.655h37.046L568.462,254.878z"/>
	<path fill="#FFFFFF" d="M652.173,350.986v-99.932h-18.062v-29.399h18.062v-42.979h37.573v42.979h18.062v29.399h-18.062v99.932
		H652.173z"/>
	<path fill="#FFFFFF" d="M741.025,350.986v-99.932h-16.743v-29.399h16.743V192.52c0-17.402,3.998-29.861,11.997-37.375
		c7.997-7.515,21.181-11.272,39.551-11.272c2.021,0,4.371,0.198,7.054,0.593c2.68,0.396,6.173,1.121,10.48,2.175v29.927
		c-2.286-1.23-4.482-2.13-6.592-2.703c-2.109-0.571-4.308-0.857-6.592-0.857c-6.592,0-11.295,1.736-14.106,5.208
		c-2.813,3.473-4.219,9.472-4.219,17.996v25.444h23.994v29.399h-23.994v99.932H741.025z"/>
	<path fill="#FFFFFF" d="M961.851,286.782c0,19.864-6.79,36.387-20.368,49.57c-13.58,13.184-30.784,19.775-51.614,19.775
		c-21.007,0-38.321-6.592-51.943-19.775c-13.624-13.184-20.435-29.707-20.435-49.57c0-19.775,6.855-36.298,20.566-49.57
		c13.711-13.27,30.981-19.907,51.812-19.907c20.917,0,38.144,6.548,51.68,19.644C955.082,250.045,961.851,266.657,961.851,286.782z
		 M923.618,286.519c0-10.547-3.077-18.962-9.229-25.247c-6.153-6.283-14.415-9.426-24.785-9.426c-10.372,0-18.589,3.121-24.653,9.36
		c-6.064,6.242-9.097,14.679-9.097,25.313c0,10.547,3.032,18.984,9.097,25.313s14.281,9.492,24.653,9.492
		c10.283,0,18.522-3.164,24.72-9.492C920.52,305.503,923.618,297.065,923.618,286.519z"/>
	<path fill="#FFFFFF" d="M986.245,350.986V146.641h37.441v204.346H986.245z"/>
	<path fill="#FFFFFF" d="M1054.541,168.525c0-5.976,2.152-11.118,6.46-15.425c4.306-4.305,9.447-6.46,15.425-6.46
		c6.064,0,11.271,2.132,15.623,6.394c4.35,4.264,6.525,9.426,6.525,15.491s-2.176,11.251-6.525,15.557
		c-4.352,4.307-9.559,6.46-15.623,6.46c-5.978,0-11.119-2.196-15.425-6.592C1056.693,179.556,1054.541,174.415,1054.541,168.525z
		 M1057.837,350.986V221.655h37.441v129.331H1057.837z"/>
	<path fill="#FFFFFF" d="M1264.034,286.782c0,19.864-6.79,36.387-20.368,49.57c-13.58,13.184-30.784,19.775-51.614,19.775
		c-21.007,0-38.321-6.592-51.943-19.775c-13.624-13.184-20.435-29.707-20.435-49.57c0-19.775,6.855-36.298,20.566-49.57
		c13.711-13.27,30.981-19.907,51.812-19.907c20.917,0,38.144,6.548,51.68,19.644
		C1257.266,250.045,1264.034,266.657,1264.034,286.782z M1225.802,286.519c0-10.547-3.077-18.962-9.229-25.247
		c-6.153-6.283-14.415-9.426-24.785-9.426c-10.372,0-18.589,3.121-24.653,9.36c-6.064,6.242-9.097,14.679-9.097,25.313
		c0,10.547,3.032,18.984,9.097,25.313s14.281,9.492,24.653,9.492c10.283,0,18.522-3.164,24.72-9.492
		C1222.703,305.503,1225.802,297.065,1225.802,286.519z"/>
</g>
</svg>
